<svg viewBox="0 0 512 512" fill="none" xmlns="http://www.w3.org/2000/svg">
  <!-- First C -->
  <path d="M172 128C227.228 128 272 172.772 272 228C272 283.228 227.228 328 172 328C116.772 328 72 283.228 72 228C72 209.2 77.6 191.6 87.2 176.8L128 200C120.8 211.2 116 224.4 116 228C116 258.928 141.072 284 172 284C202.928 284 228 258.928 228 228C228 197.072 202.928 172 172 172C160.4 172 149.6 176 140.8 182.4L112 152C128.8 137.6 149.2 128 172 128Z" 
        fill="#FFFFFF"/>
  
  <!-- Second C -->  
  <path d="M340 128C395.228 128 440 172.772 440 228C440 283.228 395.228 328 340 328C284.772 328 240 283.228 240 228C240 209.2 245.6 191.6 255.2 176.8L296 200C288.8 211.2 284 224.4 284 228C284 258.928 309.072 284 340 284C370.928 284 396 258.928 396 228C396 197.072 370.928 172 340 172C328.4 172 317.6 176 308.8 182.4L280 152C296.8 137.6 317.2 128 340 128Z" 
        fill="#FFFFFF"/>
</svg>

