<svg width="200" height="120" viewBox="0 0 200 120" fill="none" xmlns="http://www.w3.org/2000/svg">
  <!-- First C -->
  <path d="M 60 10 
           C 80 10, 90 20, 90 40
           C 90 48, 87 54, 82 58
           C 90 64, 93 72, 93 82
           C 93 102, 80 110, 60 110
           C 40 110, 25 102, 25 82
           C 25 72, 28 64, 36 58
           C 28 54, 25 48, 25 40
           C 25 20, 40 10, 60 10 Z
           M 60 25
           C 48 25, 42 30, 42 40
           C 42 50, 48 55, 60 55
           C 72 55, 78 50, 78 40
           C 78 30, 72 25, 60 25 Z
           M 60 65
           C 48 65, 42 70, 42 82
           C 42 94, 48 98, 60 98
           C 72 98, 78 94, 78 82
           C 78 70, 72 65, 60 65 Z" 
        fill="#4A90E2"/>
  
  <!-- Second C -->
  <path d="M 140 10
           C 160 10, 175 20, 175 40
           C 175 48, 172 54, 167 58
           L 175 58
           C 175 58, 175 58, 175 58
           C 175 64, 175 72, 175 82
           C 175 102, 160 110, 140 110
           C 120 110, 105 102, 105 82
           C 105 72, 108 64, 116 58
           C 108 54, 105 48, 105 40
           C 105 20, 120 10, 140 10 Z
           M 140 25
           C 128 25, 122 30, 122 40
           C 122 50, 128 55, 140 55
           C 152 55, 158 50, 158 40
           C 158 30, 152 25, 140 25 Z
           M 140 65
           C 128 65, 122 70, 122 82
           C 122 94, 128 98, 140 98
           C 152 98, 158 94, 158 82
           C 158 70, 152 65, 140 65 Z" 
        fill="#4A90E2"/>
</svg>

