<svg xmlns="http://www.w3.org/2000/svg" viewBox="0 0 310.56 59.22"><defs><style>.cls-1{fill:#002de4;}</style></defs><g id="Layer_2" data-name="Layer 2"><g id="Layer_1-2" data-name="Layer 1"><path class="cls-1" d="M99.31,36.11h2l-.84,7.33A25.72,25.72,0,0,1,89,45.83c-10,0-15.61-6.8-15.61-14.62,0-9.68,7-15.75,15.91-15.75,5.16,0,8.47,1.4,10.44,2.69l.23,6.53H98C96.34,19.82,93.46,18,88.94,18c-7.33,0-10,5.43-10,11.77,0,7.06,3.3,13.59,10.85,13.59,5.44,0,7.75-2.43,9.5-7.21"/><path class="cls-1" d="M120.79,36.26c0-5.09-2.31-9-6.49-9-3.53,0-5.13,3-5.13,7.13,0,5.09,2.36,9,6.5,9,3.53,0,5.12-3,5.12-7.14m-16.44-.57c0-6.68,5-10.9,11-10.9s10.29,4.3,10.29,10.14c0,6.68-5,10.9-11.05,10.9s-10.25-4.29-10.25-10.14"/><path class="cls-1" d="M143.23,42.11a9.19,9.19,0,0,1-7.1,3.72c-3.65,0-6.23-1.82-6.23-6.27v-10c0-1.29-.57-1.78-2.31-2l-.69-.11V25.74l6.61-.94h1.14l-.19,3.91V38.92c0,2.62,1.44,3.64,3.49,3.64a8.76,8.76,0,0,0,5.28-2.16V29.54c0-1.29-.57-1.78-2.32-2l-.65-.11V25.74l6.61-.94H148l-.19,3.91V40.89c0,1.29.42,1.67,2.05,1.82l1,.08V44.5l-7,1.33H143Z"/><path class="cls-1" d="M160.28,30.76c1.86-3.57,3.56-6,6.45-6a2.82,2.82,0,0,1,1.86.53v4.06h-1.44a8.26,8.26,0,0,0-6.87,3.11v9c0,1.86.95,2,3.64,2.28v1.67H152.84V43.78c1.74-.23,2.88-.42,2.88-2.17V29.2L153,27.72v-1l6.07-1.93h1.37Z"/><path class="cls-1" d="M170.6,43.85l-.23-5.05h2c.72,3.23,2.46,4.9,5.58,4.9,2.5,0,4.1-1.06,4.1-3.15,0-1.75-1.25-2.39-3.34-3l-2.74-.8c-3.26-.91-5.35-2.39-5.35-6s2.85-6,7.33-6a12.76,12.76,0,0,1,6.64,1.63v4.63h-1.9c-.6-2.92-2.24-4.14-4.93-4.14-1.94,0-3.27.91-3.27,2.73,0,1.52.88,2.17,2.7,2.7l3,.84c3.64,1,5.73,2.58,5.73,6.34,0,4-3.22,6.3-8,6.3a12.64,12.64,0,0,1-7.29-2"/><path class="cls-1" d="M192.62,32.09h9.72c0-2.74-1.6-4.86-4.75-4.86-2.81,0-4.59,2-5,4.86m14.39.83v1.14H192.5c0,5,2.32,8,7.1,8a7.77,7.77,0,0,0,6.23-2.93l1.22.57c-.92,3-3.57,6.08-9,6.08-6.08,0-9.84-4.22-9.84-9.87,0-6.68,4.41-11.16,10.25-11.16,5.58,0,8.51,3.53,8.51,8.12"/><path class="cls-1" d="M241.16,31.48H225.3v9.11c0,2.47,1.28,2.88,4.13,3v1.86H216.18V43.59c2.85-.12,4.14-.53,4.14-3V20.7c0-2.47-1.29-2.89-4.14-3V15.84h13.25V17.7c-2.85.11-4.13.53-4.13,3v8.5h15.86V20.7c0-2.47-1.29-2.89-4.14-3V15.84h13.26V17.7c-2.85.11-4.14.53-4.14,3V40.59c0,2.47,1.29,2.88,4.14,3v1.86H237V43.59c2.85-.12,4.14-.53,4.14-3Z"/><path class="cls-1" d="M256,32.09h9.72c0-2.74-1.6-4.86-4.75-4.86-2.81,0-4.59,2-5,4.86m14.38.83v1.14h-14.5c0,5,2.32,8,7.1,8a7.79,7.79,0,0,0,6.23-2.93l1.21.57c-.91,3-3.56,6.08-9,6.08-6.07,0-9.83-4.22-9.83-9.87,0-6.68,4.41-11.16,10.25-11.16,5.58,0,8.5,3.53,8.5,8.12"/><path class="cls-1" d="M280,30.76c1.86-3.57,3.57-6,6.45-6a2.82,2.82,0,0,1,1.86.53v4.06h-1.44A8.26,8.26,0,0,0,280,32.5v9c0,1.86.95,2,3.64,2.28v1.67H272.55V43.78c1.74-.23,2.88-.42,2.88-2.17V29.2l-2.69-1.48v-1l6.07-1.93h1.37Z"/><path class="cls-1" d="M305.69,36.26c0-5.09-2.31-9-6.49-9-3.53,0-5.12,3-5.12,7.13,0,5.09,2.35,9,6.49,9,3.53,0,5.12-3,5.12-7.14m-16.43-.57c0-6.68,5-10.9,11-10.9s10.29,4.3,10.29,10.14c0,6.68-5,10.9-11.05,10.9s-10.25-4.29-10.25-10.14"/><path class="cls-1" d="M39.8,45.45,29.3,38.86,18.81,45.45l3-12-9.52-7.94,12.37-.84,4.61-11.5,4.62,11.5,12.37.84-9.52,7.94ZM29.3,8.35,0,0V49L29.3,59.22,58.61,49V0Z"/></g></g></svg>